<?xml version="1.0" encoding="utf-8"?>
<!-- Generator: Adobe Illustrator 23.0.5, SVG Export Plug-In . SVG Version: 6.00 Build 0)  -->
<svg version="1.1" id="Capa_1" xmlns="http://www.w3.org/2000/svg" xmlns:xlink="http://www.w3.org/1999/xlink" x="0px" y="0px"
	 viewBox="0 0 305.3 310.7" style="enable-background:new 0 0 305.3 310.7;" xml:space="preserve">
<style type="text/css">
	.st0{fill:#FFFFFF;}
</style>
<title>logo-cocina</title>
<path class="st0" d="M155.6,45.7c6.5-0.2,13,0.1,19.5,0.8c1.8,0.2,2.6-0.4,2.6-2.4c0.1-2.9-0.4-5.1-2.9-7.3
	c-5.7-5.2-5.7-14.3,0.1-20c5.2-5.3,13.7-5.5,19.2-0.6c7.3,6.3,5.9,17.4-0.8,21.9c-1.2,0.8-1.3,1.9-1.3,3.1c-0.1,6.5-0.1,6.4,6.3,7.2
	c9.6,1.1,19,2.8,28.5,4.7c11.1,2.2,22,5.2,32.7,8.9c9.6,3.3,18.9,7.2,27.3,12.8c6.3,4.1,12.2,8.9,15.8,15.7c1.7,3,2.6,6.4,2.6,9.9
	c0,1.4-0.6,1.8-1.9,1.7c-9.6-1-19.2-2-28.8-3c-7.1-0.7-14.2-1.4-21.3-2.1c-11.9-1.2-23.8-2.5-35.7-3.8c-8.5-0.9-17-1.7-25.5-2.5
	c-8.8-0.9-17.6-1.7-26.4-2.6c-11-1.2-22-2.4-33.1-3.6c-8.3-0.9-16.7-1.7-25-2.5c-9.1-0.9-18.2-2-27.4-2.8c-4.7-0.4-9.4-0.9-14.1-1.6
	c-1.4-0.2-1.9-0.4-1.3-2.1c2.7-8,8.6-12.8,15.7-16.6c10.8-6,22.6-8.6,34.6-10.5C128.5,46.5,142.1,45.5,155.6,45.7z"/>
<path class="st0" d="M150.3,286c13.2,0,24.1,0.2,35,1c13,1,26,2,38.6,5.4c2.3,0.6,4.6,1.4,6.7,2.6c1.4,0.8,3.2,1.5,3,3.6
	c-0.2,1.9-2,2.7-3.4,3.3c-3.5,1.4-7.1,2.5-10.8,3.3c-11.1,2.6-22.4,3.5-33.7,4.3c-12,0.9-24.1,1.2-36.2,1.2
	c-10.2-0.1-20.3-0.5-30.4-1.2c-10.4-0.6-20.7-1.8-30.9-3.8c-4.5-0.9-8.9-1.8-13.1-3.9c-0.4-0.2-0.7-0.4-1.1-0.6
	c-3.2-1.9-3.2-4.2,0-6.1c3.4-1.8,7.1-3.1,10.9-3.7C107.3,286.8,129.9,286.2,150.3,286z"/>
<path class="st0" d="M50.8,56.2c4.2-3,8-6.4,11.3-10.3c2.7-3.1,4.4-6.9,5.1-10.9c0.7-5.1-1.5-9.4-4.6-13.3c-2.2-2.8-4.9-5.3-7.9-7.3
	c-0.6-0.3-1-0.9-1.1-1.6c5.1-0.1,10.2-0.4,15.3,0.4c4.7,0.7,9.2,1.9,13,5c3.8,3.1,5.2,8.4,3.5,13c-2.1,5.8-6,10.1-10.6,14
	c-6.6,5.4-14,9.8-22,13c-0.8,0.5-1.8,0.6-2.7,0.2C49,57.3,50.5,57,50.8,56.2z"/>
<path class="st0" d="M19,85.3c3.4,6.9,9.2,11.5,15.6,16.5c-1.1,0-2.2,0-3.2-0.2c-8-2.2-15.9-4.8-22.7-9.7c-3-2-5.4-4.8-7.1-8
	c-2-3.3-1.7-6.7-1-10.2c2.8-8,9-12.6,16.1-16.5c6.9-3.9,14.5-6.5,22.4-7.8c-1.6,1.1-3.1,2.3-4.7,3.3c-5.2,3.3-9.7,7.5-13.4,12.5
	c-2.9,4.2-4.7,8.9-3.9,14.2C17.5,81.5,18.2,83.5,19,85.3z"/>
<path class="st0" d="M51.8,0c-4,3-7.7,6.3-11.1,10c-1.4,1.6-2.5,3.5-3.3,5.5c-1.3,3.5,0.3,6.9,3.5,9.1c3.9,2.7,8.4,4.1,12.6,6.2
	c-0.1,0.1-0.1,0.4-0.1,0.4c-8,0.3-15.7-0.5-22.6-5c-3.4-2.2-4-7.1-1.4-11.5c3.2-5.4,8-8.8,13.4-11.5C45.5,1.8,48.2,0.2,51.8,0z"/>
<path class="st0" d="M49.9,58.3h2.9c-3.1,2.1-6.7,2.8-10.4,4c1.5-1.7,3.4-3.1,5.5-4l0.3,0.1c0.4,0.4,1,0.4,1.4,0L49.9,58.3z"/>
<path class="st0" d="M50.8,56.2c0.3,0.9-1,1.2-0.9,2l0,0c-0.5,0.5-1.3,0.6-1.8,0.1l-0.2-0.2"/>
<path class="st0" d="M141.8,185.8c4-3.8,4.7-8.7,4.7-13.8c-0.1-5.8-0.1-11.6-0.2-17.4c0-1.4-0.1-2.8-1.9-2.8s-1.8,1.5-1.8,2.8
	c0,6.9-0.1,13.8-0.1,20.8c0,1.5-0.6,2.6-2.1,2.7c-1.8,0.1-2.3-1.3-2.3-2.8c0-5.8,0-11.6,0.1-17.4c0-1.5,0-3-0.1-4.6
	c0-0.8-0.2-1.5-1.2-1.5s-1.1,0.9-1.1,1.5c-0.1,1.5-0.1,2.9-0.1,4.4c0,5.4,0.1,10.8,0.2,16.2c0,0.5,0,1,0,1.5
	c-0.1,1.4-0.5,2.7-2.1,2.7s-2.3-1.2-2.4-2.8s0-2.9,0-4.4c0-5.5,0-11-0.1-16.4c0-1,0.5-2.7-1.1-2.7s-1.2,1.6-1.2,2.6
	c0,6.5,0,13,0,19.6c0,0.7,0,1.5-0.1,2.2c-0.2,1.1-1.1,1.9-2.2,1.9c-1.2,0.1-1.5-0.8-1.8-1.6c-0.2-0.8-0.3-1.6-0.2-2.4
	c0-6.5,0-12.9,0-19.3c0-1.4,0.2-3-1.8-3s-2.1,1.6-2.1,3.2c0,6.5,0,13,0,19.6c0,4.7,1.5,8.8,5.5,11.7c1.6,1.2,2.4,3.1,2.2,5
	c0,24.8,0,49.6,0,74.5c0,5.2,0,5.3-5.4,5.3c-10.2,0-20.3,0-30.5,0c-10.4,0-20-2.5-28.6-8.4c-1.7-1.2-3.3-2.5-4.8-4
	c-2.9-2-4.7-5-6.9-7.7c-5.8-7.9-8.8-17.5-8.7-27.3c0-25.4,0-50.8,0-76.2c0-3.4,0-3.5-3.3-3.7c-4.2-0.2-8.4-0.1-12.6-0.1
	c-5,0-8.4-2.6-10.2-7.1c-2.1-5.8,0.8-12.3,6.7-14.4c1.1-0.4,2.3-0.6,3.4-0.7c2.7-0.1,5.3-0.1,8-0.1c85.8,0,171.5,0,257.2-0.1
	c8.9,0,15.8,8.9,10.5,17.5c-1.8,3.1-5.2,5-8.8,4.9c-5.1,0.1-10.3-0.1-15.5,0.2c-1.9,0.1-2,0.9-2,2.4c0,6.4,0,12.7,0,19.1
	c0,19.9,0.4,39.8-0.1,59.7c-0.5,18.5-9.6,32.3-25.9,41c-6.9,3.7-14.5,5.1-22.3,5c-10.8,0-21.6,0-32.4,0c-3.3,0-3.3,0-3.3-3.1
	c0-25.9,0-51.9,0-77.9c-0.1-1.8,0.6-3.6,1.8-4.9c5.7-6.1,7.1-13.7,6.3-21.8c-0.6-5.6-2.2-10.8-6.1-15.1c-4.4-4.9-13-4-15.6,1.8
	c-3,5-4.6,10.8-4.6,16.7c-0.1,4.8,1,9.6,3.3,13.9c0.5,1,0.8,2.1,1.4,3.1l1,1.5c1.5,1.5,1.5,3.4,1.5,5.4c0,25.3,0,50.6,0,75.9
	c0,0.8,0,1.6,0,2.4c0.1,0.9-0.5,1.7-1.3,1.8c-0.1,0-0.3,0-0.4,0h-37c-3.8,0-3.8,0-3.8-3.9c0-25,0-50,0-75
	C139.3,189.3,139.7,187.3,141.8,185.8z"/>
<path class="st0" d="M178.5,173.4c0.3,1.5,0.9,2.7,1,4.4c-4.8-6-4.6-13.7-1.9-19.7c0.5-1,1-2,1.4-3l0,0c1.1,0.2,0.8,0.8,0.5,1.4
	C177.9,162,176.5,167.6,178.5,173.4z"/>
<path class="st0" d="M52.3,250.8c2.7,2.2,4.5,5.2,6.9,7.7C55.8,256.9,53.8,254.1,52.3,250.8z"/>
</svg>
