<svg id="Capa_1" data-name="Capa 1" xmlns="http://www.w3.org/2000/svg" viewBox="0 0 305.33 310.71"><defs><style>.cls-1{fill:#fff;}</style></defs><title>logo-cocina-blanco</title><path class="cls-1" d="M155.6,45.74a151.33,151.33,0,0,1,19.51.75c1.79.22,2.59-.35,2.62-2.36.06-2.92-.44-5.1-2.87-7.3-5.7-5.17-5.67-14.27.08-20a13.93,13.93,0,0,1,19.2-.57c7.26,6.34,5.94,17.42-.8,21.91-1.19.78-1.28,1.87-1.3,3.13-.12,6.54-.13,6.43,6.33,7.19,9.56,1.13,19,2.75,28.49,4.68A262.83,262.83,0,0,1,259.6,62c9.56,3.28,18.85,7.23,27.34,12.8,6.32,4.14,12.17,8.86,15.76,15.73a19.8,19.8,0,0,1,2.62,9.91c0,1.41-.57,1.81-1.91,1.67q-14.39-1.55-28.78-3c-7.11-.73-14.22-1.41-21.33-2.14-11.91-1.24-23.82-2.53-35.73-3.75-8.48-.87-17-1.69-25.45-2.52-8.81-.87-17.62-1.69-26.42-2.61-11-1.16-22-2.44-33.06-3.61q-12.48-1.32-25-2.47c-9.13-.85-18.23-2-27.37-2.76-4.7-.42-9.44-.86-14.13-1.58-1.41-.21-1.86-.39-1.28-2.09,2.73-8,8.63-12.75,15.67-16.62,10.81-6,22.59-8.58,34.59-10.45A243.72,243.72,0,0,1,155.6,45.74Z" transform="translate(0.01 0)"/><path class="cls-1" d="M150.28,286c13.16,0,24.12.17,35.05,1,13,1,26,2,38.61,5.39a27.89,27.89,0,0,1,6.71,2.58c1.43.82,3.23,1.53,3,3.63-.22,1.92-2,2.7-3.42,3.34a61.46,61.46,0,0,1-10.77,3.3c-11.09,2.62-22.39,3.52-33.67,4.32q-18.06,1.29-36.22,1.16-15.25-.17-30.44-1.17a232.09,232.09,0,0,1-30.87-3.75c-4.46-.92-8.94-1.82-13.07-3.89-.36-.18-.7-.4-1-.6-3.23-1.93-3.24-4.24,0-6.1A36.5,36.5,0,0,1,85,291.46C107.28,286.82,129.87,286.19,150.28,286Z" transform="translate(0.01 0)"/><path class="cls-1" d="M50.79,56.22A60.87,60.87,0,0,0,62.05,45.91,22.18,22.18,0,0,0,67.13,35c.71-5.15-1.5-9.38-4.55-13.27a34.88,34.88,0,0,0-7.92-7.27,1.89,1.89,0,0,1-1-1.6c5.13-.15,10.21-.41,15.28.35,4.71.7,9.24,1.92,13,5.05a11.48,11.48,0,0,1,3.47,13c-2.07,5.78-6,10.15-10.57,14a83.07,83.07,0,0,1-22,13,3.12,3.12,0,0,1-2.7.21C49,57.33,50.54,57,50.79,56.22Z" transform="translate(0.01 0)"/><path class="cls-1" d="M19,85.34c3.36,6.89,9.19,11.47,15.58,16.47a17.46,17.46,0,0,1-3.23-.19c-8-2.18-15.88-4.79-22.7-9.7a22.27,22.27,0,0,1-7.12-8c-2-3.25-1.7-6.72-1-10.23,2.82-8,9-12.61,16.14-16.48A67.15,67.15,0,0,1,39,49.45c-1.57,1.12-3.11,2.28-4.71,3.34A49,49,0,0,0,21,65.29c-2.95,4.19-4.72,8.9-3.9,14.22A34.08,34.08,0,0,0,19,85.34Z" transform="translate(0.01 0)"/><path class="cls-1" d="M51.85,0A81.94,81.94,0,0,0,40.71,10a16.9,16.9,0,0,0-3.25,5.48c-1.33,3.53.25,6.91,3.46,9.1,3.94,2.68,8.42,4.15,12.64,6.19-.05.13-.09.39-.15.39-8,.34-15.68-.53-22.59-5-3.39-2.18-4-7.1-1.41-11.47,3.16-5.36,8-8.77,13.41-11.54C45.54,1.78,48.23.2,51.85,0Z" transform="translate(0.01 0)"/><path class="cls-1" d="M49.91,58.27h2.88c-3.09,2.11-6.7,2.81-10.38,4a16.16,16.16,0,0,1,5.54-4l.28.14a1,1,0,0,0,1.38,0Z" transform="translate(0.01 0)"/><path class="cls-1" d="M50.79,56.22c.31.94-1,1.19-.88,2.05h0a1.34,1.34,0,0,1-1.81.14l-.17-.17" transform="translate(0.01 0)"/><path class="cls-1" d="M141.78,185.83c4-3.79,4.74-8.68,4.68-13.84-.07-5.8-.12-11.6-.18-17.4,0-1.35-.14-2.81-1.87-2.84s-1.79,1.47-1.79,2.81c0,6.92-.08,13.84-.1,20.76,0,1.49-.59,2.62-2.12,2.71-1.81.1-2.26-1.33-2.27-2.78,0-5.8,0-11.6.06-17.41,0-1.52,0-3.05-.12-4.58,0-.76-.21-1.48-1.19-1.49s-1.09.87-1.13,1.54c-.11,1.45-.11,2.9-.1,4.35,0,5.4.11,10.79.16,16.19a11.69,11.69,0,0,1,0,1.45c-.13,1.35-.49,2.72-2.12,2.73s-2.34-1.19-2.35-2.76,0-2.9,0-4.35c0-5.48,0-11-.06-16.44,0-1,.5-2.68-1.15-2.7s-1.22,1.6-1.23,2.65V174a12.14,12.14,0,0,1-.1,2.17,2.25,2.25,0,0,1-2.19,1.88c-1.18.14-1.52-.82-1.78-1.62a7.87,7.87,0,0,1-.24-2.37V154.73c0-1.37.19-3-1.81-3s-2.06,1.64-2.06,3.16v19.58c0,4.73,1.52,8.8,5.48,11.7a5.7,5.7,0,0,1,2.22,5.05q-.06,37.23,0,74.46c0,5.24,0,5.25-5.38,5.25H92.58c-10.37,0-20-2.5-28.56-8.43a34.47,34.47,0,0,1-4.78-4c-2.87-2.05-4.72-5-6.86-7.71a45.1,45.1,0,0,1-8.72-27.26V147.37c0-3.38,0-3.53-3.34-3.69-4.18-.19-8.37-.11-12.56-.15a10.36,10.36,0,0,1-10.16-7.12A11.23,11.23,0,0,1,24.26,122a11.49,11.49,0,0,1,3.43-.68c2.66-.1,5.32-.06,8-.06q128.63,0,257.24-.08c8.91,0,15.82,8.9,10.52,17.48a10,10,0,0,1-8.82,4.9c-5.15.13-10.29-.14-15.45.18-1.91.12-2.05.9-2,2.36v19.1c0,19.9.42,39.82-.15,59.71-.53,18.48-9.58,32.29-25.92,41a46,46,0,0,1-22.28,5h-32.4c-3.28,0-3.28,0-3.28-3.14V189.91A6.45,6.45,0,0,1,195,185c5.71-6.14,7.06-13.72,6.27-21.76-.56-5.59-2.22-10.76-6.13-15.11-4.39-4.88-13-4-15.57,1.81A32.7,32.7,0,0,0,175,166.63a28.09,28.09,0,0,0,3.3,13.85c.55,1,.81,2.08,1.35,3.06l1,1.48c1.45,1.53,1.5,3.39,1.5,5.38q-.08,38,0,75.92v2.42a1.58,1.58,0,0,1-1.32,1.8,1.29,1.29,0,0,1-.44,0h-37c-3.78,0-3.79,0-3.79-3.91q0-37.5-.05-74.95C139.33,189.27,139.75,187.28,141.78,185.83Z" transform="translate(0.01 0)"/><path class="cls-1" d="M178.54,173.36c.3,1.55.91,2.67,1,4.37-4.84-6-4.58-13.7-1.89-19.69.46-1,1-2,1.43-3h0c1.06.18.77.8.48,1.44C177.92,162,176.54,167.59,178.54,173.36Z" transform="translate(0.01 0)"/><path class="cls-1" d="M52.25,250.8c2.68,2.22,4.47,5.23,6.86,7.71C55.8,256.85,53.75,254.07,52.25,250.8Z" transform="translate(0.01 0)"/></svg>